HIERARCHY
ROOT Hips
{
	OFFSET 0.000000 0.000000 0.000000 
	CHANNELS 6 Xposition Yposition Zposition Yrotation Zrotation Xrotation 
	JOINT Lumbar
	{
		OFFSET 0.000000 0.000000 0.000000 
		CHANNELS 3 Zrotation Xrotation Yrotation
		JOINT Neck
		{
			OFFSET 0.000000 0.445665 0.000000 
			CHANNELS 3 Zrotation Xrotation Yrotation
			End Site
			{
				OFFSET 0.000000 0.227535 0.000000 
			}
		}
		JOINT RightShoulder
		{
			OFFSET 0.019635 0.377685 0.194865 
			CHANNELS 3 Zrotation Xrotation Yrotation
			JOINT RightElbow
			{
				OFFSET 0.000000 -0.243375 0.000000 
				CHANNELS 2 Zrotation Yrotation
				JOINT RightWrist
				{
					OFFSET 0.000000 -0.264825 0.000000 
					CHANNELS 2 Zrotation Xrotation
					End Site
					{
						OFFSET 0.006600 -0.176220 0.000990 
					}
				}
			}
		}
		JOINT LeftShoulder
		{
			OFFSET 0.019635 0.377685 -0.194865 
			CHANNELS 3 Zrotation Xrotation Yrotation
			JOINT LeftElbow
			{
				OFFSET 0.000000 -0.243375 0.000000 
				CHANNELS 2 Zrotation Yrotation
				JOINT LeftWrist
				{
					OFFSET 0.000000 -0.264825 0.000000 
					CHANNELS 2 Zrotation Xrotation
					End Site
					{
						OFFSET 0.006600 -0.176220 -0.000990 
					}
				}
			}
		}
	}
	JOINT RightHip
	{
		OFFSET 0.052140 -0.069960 0.075570 
		CHANNELS 3 Zrotation Xrotation Yrotation
		JOINT RightKnee
		{
			OFFSET 0.000000 -0.402270 0.000000 
			CHANNELS 1 Zrotation
			JOINT RightAnkle
			{
				OFFSET 0.000000 -0.404085 0.000000 
				CHANNELS 3 Zrotation Xrotation Yrotation
				End Site
				{
					OFFSET 0.204105 -0.089430 0.008415 
				}
			}
		}
	}
	JOINT LeftHip
	{
		OFFSET 0.052140 -0.069960 -0.075570 
		CHANNELS 3 Zrotation Xrotation Yrotation
		JOINT LeftKnee
		{
			OFFSET 0.000000 -0.402270 0.000000 
			CHANNELS 1 Zrotation
			JOINT LeftAnkle
			{
				OFFSET 0.000000 -0.404085 0.000000 
				CHANNELS 3 Zrotation Xrotation Yrotation
				End Site
				{
					OFFSET 0.204105 -0.089430 -0.008415 
				}
			}
		}
	}
}
MOTION
Frames: 25
Frame Time: 0.02
-0.00352 -0.00108 -0.00144 176.92105 -45.43802 2.19772 57.20436 -0.87505 1.54744 -4.78869 -1.50254 -0.6748 142.13632 -80.7983 -71.3052 10.81089 70.72566 -0.28713 -5.75626 160.06064 75.9799 72.14091 10.09907 -79.66755 -1.62402 10.43232 46.32681 -1.05885 -9.01282 -18.53334 -7.16926 -3.81333 -4.10013 52.61937 1.63874 7.88205 -24.30406 -7.83008 3.82291 4.1576
-0.00227 -0.00077 -0.00142 176.84827 -45.43426 2.17064 57.11962 -0.83132 1.59401 -4.80724 -1.49171 -0.67537 141.76168 -80.79079 -71.82132 10.82371 70.64851 -0.23595 -5.7295 159.79414 76.02034 72.59767 10.07478 -79.64456 -1.57198 10.39588 46.42642 -1.11379 -9.3358 -18.57736 -7.16203 -3.77628 -4.08327 52.67847 1.75702 8.32136 -24.29956 -7.82603 3.79048 4.14023
-0.00103 -0.00047 -0.0014 176.77559 -45.43045 2.14358 57.03496 -0.78769 1.64053 -4.82593 -1.48089 -0.67606 141.38701 -80.78328 -72.33714 10.83645 70.57138 -0.18488 -5.70276 159.52736 76.06066 73.05482 10.05027 -79.62151 -1.51998 10.35934 46.52587 -1.16863 -9.65799 -18.62133 -7.15484 -3.73931 -4.06644 52.73749 1.875 8.75955 -24.29507 -7.82201 3.75814 4.12291
0.00021 -0.00016 -0.00139 176.70301 -45.4267 2.11658 56.95045 -0.74409 1.68698 -4.84444 -1.47009 -0.67664 141.01341 -80.77578 -72.85185 10.84924 70.49445 -0.13384 -5.67609 159.2616 76.10098 73.5105 10.02603 -79.5986 -1.46806 10.32301 46.62519 -1.22341 -9.98 -18.66522 -7.14764 -3.70236 -4.04963 52.79642 1.99293 9.19753 -24.29057 -7.81797 3.72581 4.10559
0.00145 0.00015 -0.00137 176.6304 -45.42301 2.08956 56.86591 -0.70041 1.73344 -4.86278 -1.45929 -0.67707 140.64005 -80.76832 -73.36643 10.8621 70.41757 -0.08275 -5.64939 158.99626 76.14142 73.96505 10.00204 -79.57572 -1.41621 10.2868 46.72463 -1.27828 -10.30272 -18.70917 -7.1404 -3.66534 -4.03278 52.85542 2.11115 9.63655 -24.28607 -7.81389 3.6934 4.08822
0.0027 0.00046 -0.00135 176.55755 -45.41894 2.06243 56.781 -0.65691 1.7801 -4.88221 -1.44842 -0.6783 140.26256 -80.76068 -73.88484 10.87455 70.33987 -0.03173 -5.62254 158.72634 76.18149 74.42757 9.97641 -79.55228 -1.36392 10.2495 46.82412 -1.33303 -10.62377 -18.75317 -7.13329 -3.6285 -4.01601 52.91448 2.22861 10.07299 -24.28159 -7.81 3.66119 4.07098
0.00393 0.00076 -0.00134 176.48526 -45.41568 2.03556 56.69696 -0.61307 1.8263 -4.89935 -1.43771 -0.67791 139.89433 -80.75336 -74.39485 10.88789 70.26399 0.01944 -5.59612 158.46663 76.22223 74.87374 9.95427 -79.53018 -1.3124 10.21464 46.92334 -1.38796 -10.94784 -18.79697 -7.12593 -3.59132 -3.99909 52.97333 2.34746 10.51408 -24.27708 -7.80574 3.62862 4.05351
0.00517 0.00107 -0.00132 176.41247 -45.41162 2.00844 56.61204 -0.56957 1.87291 -4.91872 -1.42683 -0.67901 139.51659 -80.74587 -74.91281 10.90027 70.18629 0.07036 -5.56915 158.19623 76.26241 75.33465 9.92864 -79.50651 -1.26052 10.17718 47.0229 -1.44273 -11.26911 -18.84105 -7.11881 -3.55446 -3.98232 53.03239 2.46504 10.95099 -24.2726 -7.80181 3.59637 4.03625
0.00644 0.00138 -0.00128 176.33894 -45.40675 1.98105 56.52629 -0.52634 1.92012 -4.94039 -1.41582 -0.68196 139.13074 -80.73768 -75.4401 10.91205 70.10687 0.12143 -5.54209 157.91749 76.30171 75.81543 9.89975 -79.48223 -1.20675 10.13787 47.12261 -1.4973 -11.58718 -18.8851 -7.11197 -3.51794 -3.96569 53.09167 2.5811 11.38258 -24.26814 -7.79831 3.56457 4.01927
0.0076 0.00169 -0.00132 176.2693 -45.40707 1.95532 56.44608 -0.48114 1.9642 -4.94755 -1.4058 -0.67436 138.80206 -80.73203 -75.91259 10.929 70.03885 0.17302 -5.51727 157.70095 76.3455 76.18751 9.89263 -79.46539 -1.1595 10.11319 47.22065 -1.55301 -11.92432 -18.92822 -7.10345 -3.47934 -3.94813 53.14958 2.70598 11.84418 -24.26349 -7.79242 3.53035 4.00073
0.00898 0.00199 -0.00121 176.19169 -45.39609 1.92601 56.35369 -0.44036 2.01467 -4.9861 -1.39355 -0.68895 138.3462 -80.72194 -76.50125 10.93394 69.94584 0.22265 -5.48662 157.34423 76.38017 76.78507 9.83767 -79.43034 -1.10128 10.05514 47.32271 -1.60634 -12.22078 -18.97402 -7.09851 -3.44521 -3.93259 53.21046 2.8122 12.24278 -24.25931 -7.79151 3.50114 3.98544
0.01089 0.00223 -0.00074 176.0901 -45.35637 1.88745 56.23108 -0.40987 2.08445 -5.1056 -1.3761 -0.76552 137.58108 -80.69233 -77.40507 10.91399 69.79384 0.27305 -5.44938 156.66911 76.38646 78.03738 9.66688 -79.36659 -0.9882 9.92288 47.43225 -1.65303 -12.4087 -19.02171 -7.1034 -3.42277 -3.92228 53.27889 2.86714 12.46421 -24.2559 -7.80505 3.48647 3.97949
0.01302 0.00246 -0.00013 175.981 -45.30479 1.84523 56.09542 -0.38428 2.16018 -5.25763 -1.35622 -0.86412 136.67386 -80.65976 -78.42424 10.88 69.61686 0.31977 -5.40483 155.839 76.38414 79.50756 9.44587 -79.28147 -0.86758 9.75249 47.54664 -1.69748 -12.55548 -19.07345 -7.11189 -3.40492 -3.91405 53.35042 2.90331 12.62306 -24.2531 -7.82348 3.4767 3.97673
0.01507 0.00269 0.00043 175.8766 -45.25726 1.80421 55.96389 -0.35747 2.23217 -5.39812 -1.33685 -0.95195 135.81469 -80.63312 -79.39556 10.84783 69.4426 0.36488 -5.3571 155.03897 76.38808 80.85695 9.23683 -79.19108 -0.768 9.58997 47.66098 -1.74285 -12.71876 -19.12649 -7.11877 -3.38539 -3.90508 53.42095 2.9482 12.81352 -24.25035 -7.83917 3.46418 3.97225
0.01701 0.00294 0.00093 175.76638 -45.21572 1.76493 55.84079 -0.3259 2.30907 -5.52484 -1.32006 -1.04317 135.05389 -80.58647 -80.35602 10.83692 69.29689 0.42619 -5.33558 154.41689 76.38245 82.30648 9.07062 -79.16025 -0.59866 9.47304 47.76569 -1.78811 -12.89013 -19.16492 -7.12559 -3.36423 -3.89526 53.4898 2.99249 12.99099 -24.24612 -7.85702 3.45384 3.96891
0.01925 0.00313 0.00159 175.66694 -45.15843 1.72144 55.69597 -0.30608 2.37651 -5.68812 -1.29724 -1.1324 134.01832 -80.5816 -81.35614 10.77586 69.09564 0.44996 -5.25924 153.37755 76.39428 83.58935 8.80694 -79.00489 -0.56703 9.2449 47.89227 -1.83373 -13.03629 -19.23644 -7.13333 -3.34746 -3.88767 53.56282 3.03326 13.18004 -24.24521 -7.87156 3.44016 3.96395
0.02225 0.00316 0.00266 175.59521 -45.06461 1.66453 55.50342 -0.31165 2.42189 -5.9428 -1.25892 -1.21192 132.56123 -80.68396 -82.50418 10.60302 68.6605 0.39098 -5.01901 151.29686 76.46122 84.40834 8.25748 -78.47148 -0.97498 8.78629 48.07277 -1.87499 -13.11069 -19.3839 -7.14314 -3.34236 -3.88614 53.64747 3.07176 13.42167 -24.25244 -7.87551 3.41579 3.95361
0.02557 0.00311 0.00387 175.53527 -44.95475 1.60389 55.28775 -0.32994 2.45652 -6.23342 -1.21446 -1.28844 130.77098 -80.82858 -83.66109 10.3769 68.1848 0.28719 -4.72554 148.77993 76.54594 85.02031 7.61855 -77.82079 -1.51625 8.20828 48.27638 -1.91763 -13.16314 -19.56726 -7.1537 -3.34138 -3.88671 53.73631 3.10693 13.67583 -24.26316 -7.87603 3.38795 3.94155
0.02877 0.00309 0.00502 175.47253 -44.84935 1.54686 55.07673 -0.34628 2.49244 -6.50859 -1.17253 -1.36556 128.94146 -80.96161 -84.7887 10.15866 67.7867 0.19511 -4.46713 146.42519 76.61833 85.72286 7.0377 -77.24971 -1.95222 7.63601 48.47252 -1.96369 -13.23402 -19.7436 -7.1636 -3.33803 -3.88604 53.82226 3.1416 13.92119 -24.27286 -7.87824 3.36183 3.93032
0.03185 0.00309 0.00617 175.39889 -44.75479 1.4821 54.89003 -0.34672 2.54369 -6.78116 -1.13186 -1.4467 127.93298 -81.06869 -86.08682 10.00469 67.14503 0.15346 -4.16674 144.25048 76.70504 86.53979 6.37555 -76.56703 -2.55541 7.25176 48.65488 -1.99318 -13.26898 -19.88066 -7.17483 -3.33692 -3.88662 53.9113 3.1837 14.17879 -24.28017 -7.87995 3.33519 3.91893
0.03527 0.00303 0.00734 175.35063 -44.63485 1.43201 54.6473 -0.38309 2.56043 -7.06726 -1.08686 -1.51845 125.11081 -81.232 -86.95538 9.70962 66.99244 -0.02139 -3.93601 141.55759 76.77044 86.95112 5.86969 -76.08897 -2.86876 6.46747 48.87281 -2.05677 -13.37258 -20.10824 -7.18358 -3.33213 -3.88513 53.99637 3.21032 14.41306 -24.29328 -7.88201 3.30885 3.90748
0.0395 0.00283 0.00853 175.37091 -44.4417 1.42806 54.25641 -0.51649 2.48396 -7.38153 -1.03352 -1.56487 117.60305 -81.60218 -87.31223 8.99773 68.28129 -0.39505 -3.95857 137.89878 76.73048 87.3335 5.75559 -76.20676 -2.11135 4.438 49.17082 -2.2206 -13.68375 -20.57469 -7.18385 -3.3153 -3.87685 54.05684 3.19077 14.5938 -24.3213 -7.88439 3.28337 3.89577
0.04408 0.00257 0.00973 175.41568 -44.22515 1.43786 53.81004 -0.68518 2.37321 -7.70789 -0.97556 -1.60184 108.24948 -82.01211 -87.13458 8.15639 70.05141 -0.92521 -4.04626 133.66888 76.67185 87.15783 5.81545 -76.53405 -1.09566 2.03961 49.50603 -2.41727 -14.06239 -21.13107 -7.18176 -3.29466 -3.86645 54.11568 3.1569 14.74815 -24.35497 -7.88756 3.25848 3.88415
0.04853 0.00233 0.01091 175.44897 -44.02374 1.43864 53.3883 -0.83732 2.2784 -8.02908 -0.91845 -1.64316 99.56798 -82.36807 -86.72552 7.39679 71.54482 -1.4943 -4.07008 129.4645 76.65522 86.50558 5.83409 -76.76437 -0.36241 -0.07541 49.83249 -2.59498 -14.40226 -21.64822 -7.1818 -3.27645 -3.85745 54.18334 3.13216 14.90604 -24.38631 -7.89126 3.23379 3.87279
0.05286 0.00209 0.01216 175.48598 -43.8019 1.45215 52.96739 -0.99293 2.18157 -8.35101 -0.86677 -1.68426 91.52843 -82.89276 -88.2165 6.52576 73.27069 -1.62286 -4.22811 126.22685 76.5163 88.7715 5.6824 -76.99878 1.03661 -2.67355 50.12574 -2.79071 -14.77635 -22.16114 -7.17776 -3.25589 -3.84694 54.21641 3.09519 15.10087 -24.41715 -7.89088 3.20683 3.86004
